<svg width="82" height="82" viewBox="0 0 82 82" fill="none" xmlns="http://www.w3.org/2000/svg">
<rect width="82" height="82" rx="41" fill="#FB9E43"/>
<path d="M28.9761 35.7325C29.2722 35.5161 29.5398 35.2542 29.779 34.9467C30.0182 34.6278 30.2175 34.4683 30.3769 34.4683C30.5477 34.4683 30.6332 34.7189 30.6332 35.22C30.6332 35.7097 30.4908 36.1767 30.2061 36.6208C29.9327 37.0536 29.5683 37.4181 29.1127 37.7142C28.1788 38.3292 27.0741 38.6367 25.7986 38.6367C24.2497 38.6367 23.0482 38.2494 22.194 37.475C21.3398 36.7006 20.9127 35.6243 20.9127 34.2463C20.9127 32.5493 21.3227 30.9378 22.1427 29.4117C22.4161 28.9106 22.7236 28.4493 23.0652 28.0279C22.8033 27.7204 22.5926 27.4015 22.4332 27.0713C22.2851 26.7296 22.2111 26.4733 22.2111 26.3025C22.2111 25.995 22.325 25.8412 22.5527 25.8412C22.7122 25.8526 22.8944 25.9608 23.0994 26.1658L23.629 26.6783C23.7657 26.815 23.908 26.9289 24.0561 27.02C25.1836 26.0633 26.3965 25.585 27.6948 25.585C29.0045 25.585 29.853 25.9494 30.2402 26.6783C30.3769 26.9517 30.4452 27.2876 30.4452 27.6863C30.4452 28.2899 30.1833 28.7967 29.6594 29.2067C29.1355 29.6167 28.4294 29.8217 27.5411 29.8217C26.6641 29.8217 25.753 29.6394 24.8077 29.275C23.9991 30.6531 23.5948 32.0938 23.5948 33.5971C23.5948 35.6813 24.4262 36.7233 26.089 36.7233C27.114 36.7233 28.0763 36.3931 28.9761 35.7325ZM25.6277 28.2158C26.2086 28.4094 26.8407 28.5063 27.524 28.5063C28.2073 28.5063 28.549 28.3183 28.549 27.9425C28.549 27.4983 28.27 27.2763 27.7119 27.2763C26.9488 27.2763 26.2541 27.5894 25.6277 28.2158ZM36.6777 37.0479C35.778 38.1071 34.696 38.6367 33.4319 38.6367C32.1791 38.6367 31.2395 38.3178 30.6131 37.68C29.9867 37.0308 29.6792 36.2279 29.6906 35.2713C29.6792 33.916 30.1063 32.7486 30.9719 31.7692C31.8374 30.7897 32.9706 30.3 34.3715 30.3C35.0092 30.3 35.5217 30.3797 35.909 30.5392C36.5809 30.8125 36.9169 31.0688 36.9169 31.3079C36.9169 31.4901 36.4442 31.5869 35.499 31.5983C34.5651 31.5983 33.7792 31.9229 33.1415 32.5721C32.5151 33.2099 32.2019 34.0185 32.2019 34.9979C32.2019 35.5104 32.3499 35.9432 32.646 36.2963C32.9535 36.6379 33.3806 36.8088 33.9273 36.8088C34.4854 36.8088 34.9466 36.6949 35.311 36.4671C34.5024 35.9204 34.0981 35.1289 34.0981 34.0925C34.0867 33.5458 34.2804 33.0504 34.679 32.6062C35.089 32.1507 35.6072 31.9229 36.2335 31.9229C36.8713 31.9115 37.3269 32.0824 37.6002 32.4354C37.8735 32.7885 38.0102 33.244 38.0102 33.8021C38.0102 34.3488 37.8792 34.9296 37.6173 35.5446H37.7198C38.2209 35.5332 38.6537 35.3567 39.0181 35.015C39.1548 34.8783 39.2687 34.7588 39.3598 34.6563C39.4623 34.5538 39.5648 34.5025 39.6673 34.5025C39.8267 34.5025 39.9065 34.6904 39.9065 35.0663C39.9065 35.761 39.7015 36.2849 39.2915 36.6379C38.8815 36.9796 38.4259 37.1504 37.9248 37.1504C37.4351 37.1504 37.0194 37.1163 36.6777 37.0479ZM36.524 35.0663C36.7176 34.6563 36.8144 34.2576 36.8144 33.8704C36.8144 33.4832 36.6891 33.2896 36.4385 33.2896C36.336 33.2896 36.2506 33.3636 36.1823 33.5117C36.114 33.6597 36.0798 33.8021 36.0798 33.9388C36.0798 34.3943 36.2279 34.7701 36.524 35.0663ZM42.8613 38.5512C41.2327 38.5626 40.1223 37.9533 39.5301 36.7233C39.3251 36.2906 39.2226 35.7496 39.2226 35.1004C39.2226 34.4399 39.2795 33.7394 39.3934 32.9992C39.6212 31.5186 40.0597 30.1519 40.7088 28.8992C41.0391 28.2614 41.4093 27.7147 41.8193 27.2592C42.719 26.2569 43.7212 25.7615 44.8259 25.7729C45.3157 25.7729 45.6972 25.9096 45.9705 26.1829C46.2552 26.4449 46.3976 26.8264 46.3976 27.3275C46.3976 27.8286 46.2495 28.3354 45.9534 28.8479C45.6573 29.349 45.2758 29.8729 44.8088 30.4196C44.3533 30.9549 43.8465 31.5186 43.2884 32.1108C42.7304 32.7031 42.1837 33.3465 41.6484 34.0413V34.7246C41.6484 35.3624 41.7851 35.8293 42.0584 36.1254C42.3318 36.4215 42.6507 36.5696 43.0151 36.5696C43.9945 36.5696 44.8601 36.0856 45.6118 35.1175C45.9193 34.7189 46.1527 34.5196 46.3122 34.5196C46.4716 34.5196 46.5513 34.7132 46.5513 35.1004C46.5513 35.4876 46.4432 35.8863 46.2268 36.2963C46.0218 36.6949 45.7484 37.065 45.4068 37.4067C45.0651 37.7369 44.6722 38.0103 44.228 38.2267C43.7838 38.4431 43.3283 38.5512 42.8613 38.5512ZM43.7838 29.3775C44.023 29.0814 44.2109 28.8138 44.3476 28.5746C44.4843 28.3354 44.5526 28.0906 44.5526 27.84C44.5526 27.5781 44.4615 27.4471 44.2793 27.4471C43.8807 27.4471 43.4365 27.8571 42.9468 28.6771C42.4684 29.4971 42.1097 30.5733 41.8705 31.9058C42.2577 31.3136 42.6108 30.8182 42.9297 30.4196C43.26 30.021 43.5447 29.6736 43.7838 29.3775ZM52.4431 37.0479C51.5434 38.1071 50.4614 38.6367 49.1973 38.6367C47.9445 38.6367 47.0049 38.3178 46.3785 37.68C45.7521 37.0308 45.4446 36.2279 45.456 35.2713C45.4446 33.916 45.8717 32.7486 46.7373 31.7692C47.6028 30.7897 48.736 30.3 50.1368 30.3C50.7746 30.3 51.2871 30.3797 51.6743 30.5392C52.3463 30.8125 52.6823 31.0688 52.6823 31.3079C52.6823 31.4901 52.2096 31.5869 51.2643 31.5983C50.3305 31.5983 49.5446 31.9229 48.9068 32.5721C48.2805 33.2099 47.9673 34.0185 47.9673 34.9979C47.9673 35.5104 48.1153 35.9432 48.4114 36.2963C48.7189 36.6379 49.146 36.8088 49.6927 36.8088C50.2507 36.8088 50.712 36.6949 51.0764 36.4671C50.2678 35.9204 49.8635 35.1289 49.8635 34.0925C49.8521 33.5458 50.0457 33.0504 50.4443 32.6062C50.8543 32.1507 51.3725 31.9229 51.9989 31.9229C52.6367 31.9115 53.0923 32.0824 53.3656 32.4354C53.6389 32.7885 53.7756 33.244 53.7756 33.8021C53.7756 34.3488 53.6446 34.9296 53.3827 35.5446H53.4852C53.9863 35.5332 54.4191 35.3567 54.7835 35.015C54.9202 34.8783 55.0341 34.7588 55.1252 34.6563C55.2277 34.5538 55.3302 34.5025 55.4327 34.5025C55.5921 34.5025 55.6718 34.6904 55.6718 35.0663C55.6718 35.761 55.4668 36.2849 55.0568 36.6379C54.6468 36.9796 54.1913 37.1504 53.6902 37.1504C53.2005 37.1504 52.7848 37.1163 52.4431 37.0479ZM52.2893 35.0663C52.483 34.6563 52.5798 34.2576 52.5798 33.8704C52.5798 33.4832 52.4545 33.2896 52.2039 33.2896C52.1014 33.2896 52.016 33.3636 51.9477 33.5117C51.8793 33.6597 51.8452 33.8021 51.8452 33.9388C51.8452 34.3943 51.9932 34.7701 52.2893 35.0663ZM57.3113 35.63L57.4138 37.7142C57.4138 37.9875 57.2715 38.2324 56.9867 38.4488C56.702 38.6651 56.3148 38.7733 55.8251 38.7733C55.5403 38.7733 55.341 38.6253 55.2271 38.3292C55.1246 38.0331 55.0734 37.6003 55.0734 37.0308C55.0734 35.835 55.1303 34.9011 55.2442 34.2292C55.3695 33.5458 55.6087 32.8568 55.9617 32.1621C55.4378 31.661 55.1759 31.2282 55.1759 30.8638C55.1759 30.1007 55.5859 29.7192 56.4059 29.7192C56.8273 29.7192 57.1974 29.9413 57.5163 30.3854C57.7441 30.6929 57.9092 31.0517 58.0117 31.4617C58.1712 31.5186 58.3705 31.5471 58.6096 31.5471C58.9399 31.5471 59.3215 31.4389 59.7542 31.2225L60.1984 31.0004C60.3351 30.9321 60.4546 30.8979 60.5571 30.8979C60.8874 30.8979 61.2177 31.3819 61.548 32.35C61.4455 32.7942 61.3316 33.2213 61.2063 33.6312C61.0924 34.0413 60.9558 34.5367 60.7963 35.1175C60.6369 35.6983 60.5515 36.0913 60.5401 36.2963C60.5401 36.4899 60.6027 36.5867 60.728 36.5867C60.8988 36.5867 61.1095 36.4785 61.3601 36.2621C61.6106 36.0457 61.8612 35.8122 62.1117 35.5617C62.3623 35.2997 62.5901 35.0606 62.7951 34.8442C63.0115 34.6278 63.1595 34.5196 63.2392 34.5196C63.3987 34.5196 63.4784 34.7132 63.4784 35.1004C63.4784 35.8862 63.131 36.6607 62.4363 37.4238C61.753 38.1868 60.9671 38.5626 60.0788 38.5512C59.5549 38.5512 59.162 38.3406 58.9001 37.9192C58.6381 37.4978 58.5015 36.9853 58.4901 36.3817C58.4901 35.1858 58.7577 34.0526 59.293 32.9821C59.0424 33.0846 58.7577 33.1358 58.4388 33.1358C58.1313 33.1358 57.9092 33.1244 57.7726 33.1017C57.6701 33.5344 57.5676 33.9729 57.4651 34.4171C57.3626 34.8499 57.3113 35.2542 57.3113 35.63ZM21.1351 52.7325C21.4312 52.5161 21.6988 52.2542 21.938 51.9467C22.1772 51.6278 22.3765 51.4683 22.5359 51.4683C22.7068 51.4683 22.7922 51.7189 22.7922 52.22C22.7922 52.7097 22.6498 53.1767 22.3651 53.6208C22.0918 54.0536 21.7273 54.4181 21.2718 54.7142C20.3379 55.3292 19.2331 55.6367 17.9576 55.6367C16.4087 55.6367 15.2072 55.2494 14.353 54.475C13.4988 53.7006 13.0718 52.6243 13.0718 51.2463C13.0718 49.5493 13.4818 47.9378 14.3018 46.4117C14.5751 45.9106 14.8826 45.4493 15.2243 45.0279C14.9623 44.7204 14.7516 44.4015 14.5922 44.0713C14.4441 43.7296 14.3701 43.4733 14.3701 43.3025C14.3701 42.995 14.484 42.8412 14.7118 42.8412C14.8712 42.8526 15.0534 42.9608 15.2584 43.1658L15.788 43.6783C15.9247 43.815 16.067 43.9289 16.2151 44.02C17.3426 43.0633 18.5555 42.585 19.8538 42.585C21.1636 42.585 22.012 42.9494 22.3993 43.6783C22.5359 43.9517 22.6043 44.2876 22.6043 44.6863C22.6043 45.2899 22.3423 45.7967 21.8184 46.2067C21.2945 46.6167 20.5884 46.8217 19.7001 46.8217C18.8231 46.8217 17.912 46.6394 16.9668 46.275C16.1581 47.6531 15.7538 49.0938 15.7538 50.5971C15.7538 52.6813 16.5852 53.7233 18.248 53.7233C19.273 53.7233 20.2354 53.3931 21.1351 52.7325ZM17.7868 45.2158C18.3676 45.4094 18.9997 45.5063 19.683 45.5063C20.3663 45.5063 20.708 45.3183 20.708 44.9425C20.708 44.4983 20.429 44.2763 19.8709 44.2763C19.1079 44.2763 18.4131 44.5894 17.7868 45.2158ZM28.8367 54.0479C27.937 55.1071 26.8551 55.6367 25.5909 55.6367C24.3381 55.6367 23.3985 55.3178 22.7722 54.68C22.1458 54.0308 21.8383 53.2279 21.8497 52.2713C21.8383 50.916 22.2653 49.7486 23.1309 48.7692C23.9965 47.7897 25.1297 47.3 26.5305 47.3C27.1683 47.3 27.6808 47.3797 28.068 47.5392C28.7399 47.8125 29.0759 48.0688 29.0759 48.3079C29.0759 48.4901 28.6033 48.5869 27.658 48.5983C26.7241 48.5983 25.9383 48.9229 25.3005 49.5721C24.6741 50.2099 24.3609 51.0185 24.3609 51.9979C24.3609 52.5104 24.509 52.9432 24.8051 53.2963C25.1126 53.6379 25.5397 53.8088 26.0863 53.8088C26.6444 53.8088 27.1056 53.6949 27.4701 53.4671C26.6615 52.9204 26.2572 52.1289 26.2572 51.0925C26.2458 50.5458 26.4394 50.0504 26.838 49.6062C27.248 49.1507 27.7662 48.9229 28.3926 48.9229C29.0303 48.9115 29.4859 49.0824 29.7592 49.4354C30.0326 49.7885 30.1692 50.244 30.1692 50.8021C30.1692 51.3488 30.0383 51.9296 29.7763 52.5446H29.8788C30.3799 52.5332 30.8127 52.3567 31.1772 52.015C31.3138 51.8783 31.4277 51.7588 31.5188 51.6563C31.6213 51.5538 31.7238 51.5025 31.8263 51.5025C31.9858 51.5025 32.0655 51.6904 32.0655 52.0663C32.0655 52.761 31.8605 53.2849 31.4505 53.6379C31.0405 53.9796 30.5849 54.1504 30.0838 54.1504C29.5941 54.1504 29.1784 54.1163 28.8367 54.0479ZM28.683 52.0663C28.8766 51.6563 28.9734 51.2576 28.9734 50.8704C28.9734 50.4832 28.8481 50.2896 28.5976 50.2896C28.4951 50.2896 28.4097 50.3636 28.3413 50.5117C28.273 50.6597 28.2388 50.8021 28.2388 50.9388C28.2388 51.3943 28.3869 51.7701 28.683 52.0663ZM33.4829 46.9754C33.8929 46.9754 34.2801 47.3683 34.6445 48.1542C35.1798 47.5961 35.8404 47.3171 36.6262 47.3171C37.4234 47.3171 38.0213 47.4936 38.42 47.8467C38.8186 48.1883 39.0179 48.6781 39.0179 49.3158C39.0179 49.9422 38.9325 50.58 38.7616 51.2292C38.6022 51.8783 38.4826 52.3453 38.4029 52.63C38.3345 52.9033 38.3004 53.1311 38.3004 53.3133C38.3004 53.4956 38.363 53.5867 38.4883 53.5867C38.6591 53.5867 38.8698 53.4785 39.1204 53.2621C39.3709 53.0457 39.6215 52.8122 39.872 52.5617C40.1226 52.2997 40.3504 52.0606 40.5554 51.8442C40.7718 51.6278 40.9198 51.5196 40.9995 51.5196C41.159 51.5196 41.2387 51.7132 41.2387 52.1004C41.2387 52.8976 40.8458 53.6664 40.06 54.4067C38.7388 55.1811 37.8961 55.5683 37.5316 55.5683C37.4975 55.5683 37.4747 55.5626 37.4633 55.5512C36.5522 55.5512 36.0966 54.8224 36.0966 53.3646C36.0966 52.7382 36.1536 52.1631 36.2675 51.6392C36.3927 51.1153 36.4838 50.7338 36.5408 50.4946C36.5977 50.2554 36.6262 50.0106 36.6262 49.76C36.6262 49.35 36.387 49.145 35.9087 49.145C35.4418 49.145 34.9919 49.4981 34.5591 50.2042C34.1377 50.8989 33.853 51.6221 33.705 52.3738V52.4933C33.705 52.8806 33.7619 53.2792 33.8758 53.6892C34.0011 54.0992 34.0637 54.3839 34.0637 54.5433C34.0637 54.9306 33.5797 55.3121 32.6116 55.6879C32.4636 55.7449 32.3326 55.7733 32.2187 55.7733C31.934 55.7733 31.7347 55.6253 31.6208 55.3292C31.5183 55.0331 31.467 54.5718 31.467 53.9454C31.467 52.3282 31.5297 51.1608 31.655 50.4433C31.8258 49.3728 32.213 48.3763 32.8166 47.4538C33.0216 47.1349 33.2437 46.9754 33.4829 46.9754ZM40.711 46.8046C40.711 46.5996 40.785 46.4971 40.9331 46.4971C41.1608 46.4971 41.3943 46.5483 41.6335 46.6508C41.8727 46.7419 42.1289 46.816 42.4022 46.8729C43.3133 44.9254 44.3611 43.6556 45.5456 43.0633C45.9556 42.8583 46.3656 42.7558 46.7756 42.7558C47.5386 42.7672 48.0511 42.9494 48.3131 43.3025C48.5864 43.6556 48.7231 44.1111 48.7231 44.6692C48.7117 45.7283 48.2561 46.5654 47.3564 47.1804C46.4567 47.784 45.3577 48.12 44.0593 48.1883C43.729 49.0653 43.4728 49.9992 43.2906 50.99C43.7347 50.8192 44.3042 50.7338 44.9989 50.7338C45.09 51.4513 45.2495 51.9638 45.4772 52.2713C45.705 52.5788 45.9556 52.7325 46.2289 52.7325C46.5136 52.7325 46.7471 52.6642 46.9293 52.5275C47.1229 52.3908 47.2881 52.2371 47.4247 52.0663C47.5728 51.8954 47.6924 51.7417 47.7835 51.605C47.886 51.4683 47.9828 51.4 48.0739 51.4C48.2675 51.4 48.3643 51.5708 48.3643 51.9125C48.3643 52.5958 48.1935 53.1653 47.8518 53.6208C47.5102 54.065 46.9863 54.2871 46.2802 54.2871C45.1754 54.2871 44.3896 53.9967 43.9227 53.4158C44.1732 55.9214 44.2985 57.4133 44.2985 57.8917C44.2985 58.7458 44.0308 59.3551 43.4956 59.7196C43.0514 60.0271 42.482 60.1808 41.7872 60.1808C41.1039 60.1808 40.6256 60.0214 40.3522 59.7025C40.0903 59.395 39.9593 59.0249 39.9593 58.5921C39.9593 55.8474 40.3522 53.0856 41.1381 50.3067C41.3886 49.4183 41.6733 48.5869 41.9922 47.8125C41.1381 47.4367 40.711 47.1007 40.711 46.8046ZM42.4193 58.8654C42.556 58.8654 42.6813 58.7572 42.7952 58.5408C42.909 58.3358 42.966 58.1138 42.966 57.8746C42.966 57.0887 42.8578 55.8815 42.6414 54.2529C42.3567 55.426 42.1631 56.5933 42.0606 57.755C42.0378 58.0056 42.0264 58.1593 42.0264 58.2162C42.0264 58.649 42.1574 58.8654 42.4193 58.8654ZM46.6389 44.4471C46.4111 44.4471 46.0979 44.6635 45.6993 45.0963C45.3121 45.529 44.9135 46.1896 44.5035 47.0779C45.3349 46.7135 45.8815 46.4344 46.1435 46.2408C46.6788 45.865 46.9464 45.4151 46.9464 44.8912C46.9464 44.5951 46.8439 44.4471 46.6389 44.4471ZM51.4904 53.6379C52.3788 53.6379 53.2386 53.2849 54.07 52.5788C54.3775 52.3168 54.6281 52.0776 54.8217 51.8613C55.0153 51.6335 55.1634 51.5196 55.2659 51.5196C55.4253 51.5196 55.505 51.679 55.505 51.9979C55.505 52.3168 55.4196 52.6756 55.2488 53.0742C55.0779 53.4614 54.7932 53.8429 54.3946 54.2188C53.4152 55.1413 52.0713 55.6025 50.3629 55.6025C49.0077 55.6025 48.0852 55.1128 47.5954 54.1333C47.4246 53.7917 47.3392 53.3019 47.3392 52.6642C47.3392 52.0264 47.4645 51.3658 47.715 50.6825C47.9656 49.9878 48.2959 49.3899 48.7059 48.8888C49.1272 48.3876 49.6113 48.0004 50.1579 47.7271C50.7046 47.4424 51.2854 47.3 51.9004 47.3C52.5268 47.3 53.0052 47.4538 53.3354 47.7613C53.6771 48.0688 53.8479 48.4674 53.8479 48.9571C53.8479 49.4468 53.7227 49.8511 53.4721 50.17C53.2329 50.4775 52.9197 50.7394 52.5325 50.9558C52.1453 51.1608 51.7125 51.3488 51.2342 51.5196C50.7672 51.679 50.306 51.8613 49.8504 52.0663V52.4933C49.8618 52.9033 50.0327 53.1938 50.3629 53.3646C50.6932 53.5354 51.069 53.6265 51.4904 53.6379ZM51.2 48.8204C50.6078 48.8204 50.1978 49.5094 49.97 50.8875C50.2092 50.7281 50.4313 50.5857 50.6363 50.4604C50.8527 50.3351 51.0406 50.2156 51.2 50.1017C51.5417 49.8511 51.7182 49.5664 51.7296 49.2475C51.7296 48.9628 51.5531 48.8204 51.2 48.8204ZM55.402 54.5775C55.2767 54.27 55.1856 53.9169 55.1287 53.5183C55.0717 53.1083 55.0432 52.5389 55.0432 51.81C55.0432 51.0811 55.1799 50.096 55.4532 48.8546H54.6845C54.5478 48.8546 54.4795 48.7976 54.4795 48.6838C54.4795 48.4104 54.5023 48.1883 54.5478 48.0175C54.6048 47.8353 54.73 47.6303 54.9237 47.4025H55.3337C55.4931 47.4025 55.6639 47.3968 55.8462 47.3854C56.3928 45.6315 56.9509 44.7546 57.5203 44.7546C57.9759 44.766 58.2948 45.0564 58.477 45.6258C58.5225 45.7853 58.5738 45.9561 58.6307 46.1383L57.9303 47.3683C58.7275 47.3911 59.2287 47.4025 59.4337 47.4025C59.65 47.4025 59.7639 47.4253 59.7753 47.4708C59.7981 47.505 59.8095 47.5619 59.8095 47.6417C59.8095 47.8467 59.7582 48.1029 59.6557 48.4104C59.5646 48.7179 59.4564 48.866 59.3312 48.8546L57.6228 48.7692C57.3837 50.1586 57.2641 51.3089 57.2641 52.22C57.2641 53.1311 57.395 53.5867 57.657 53.5867C57.8734 53.5867 58.2663 53.4101 58.8357 53.0571C59.4052 52.6926 59.8152 52.3453 60.0657 52.015C60.3163 51.6847 60.5213 51.5196 60.6807 51.5196C60.8402 51.5196 60.9199 51.7132 60.9199 52.1004C60.9199 52.4876 60.7832 52.8863 60.5099 53.2963C60.2366 53.6949 59.8892 54.065 59.4678 54.4067C59.0578 54.7369 58.5966 55.0103 58.0841 55.2267C57.583 55.4431 57.1445 55.5512 56.7687 55.5512C56.3928 55.5512 56.1024 55.4658 55.8974 55.295C55.7038 55.1128 55.5387 54.8736 55.402 54.5775ZM60.8239 54.5775C60.6987 54.27 60.6076 53.9169 60.5506 53.5183C60.4937 53.1083 60.4652 52.5389 60.4652 51.81C60.4652 51.0811 60.6019 50.096 60.8752 48.8546H60.1064C59.9698 48.8546 59.9014 48.7976 59.9014 48.6838C59.9014 48.4104 59.9242 48.1883 59.9698 48.0175C60.0267 47.8353 60.152 47.6303 60.3456 47.4025H60.7556C60.9151 47.4025 61.0859 47.3968 61.2681 47.3854C61.8148 45.6315 62.3728 44.7546 62.9423 44.7546C63.3978 44.766 63.7167 45.0564 63.8989 45.6258C63.9445 45.7853 63.9957 45.9561 64.0527 46.1383L63.3523 47.3683C64.1495 47.3911 64.6506 47.4025 64.8556 47.4025C65.072 47.4025 65.1859 47.4253 65.1973 47.4708C65.2201 47.505 65.2314 47.5619 65.2314 47.6417C65.2314 47.8467 65.1802 48.1029 65.0777 48.4104C64.9866 48.7179 64.8784 48.866 64.7531 48.8546L63.0448 48.7692C62.8056 50.1586 62.686 51.3089 62.686 52.22C62.686 53.1311 62.817 53.5867 63.0789 53.5867C63.2953 53.5867 63.6882 53.4101 64.2577 53.0571C64.8271 52.6926 65.2371 52.3453 65.4877 52.015C65.7382 51.6847 65.9432 51.5196 66.1027 51.5196C66.2621 51.5196 66.3419 51.7132 66.3419 52.1004C66.3419 52.4876 66.2052 52.8863 65.9319 53.2963C65.6585 53.6949 65.3112 54.065 64.8898 54.4067C64.4798 54.7369 64.0185 55.0103 63.506 55.2267C63.0049 55.4431 62.5664 55.5512 62.1906 55.5512C61.8148 55.5512 61.5244 55.4658 61.3194 55.295C61.1257 55.1128 60.9606 54.8736 60.8239 54.5775ZM67.5442 55.5512C66.4053 55.5512 65.8359 54.4864 65.8359 52.3567C65.8359 51.195 65.9783 50.1415 66.263 49.1963C66.7071 47.7385 67.2083 47.0096 67.7663 47.0096C68.0966 47.0096 68.3585 47.2317 68.5521 47.6758C68.7116 48.0175 68.7856 48.3535 68.7742 48.6838C68.7742 49.1393 68.6376 49.9422 68.3642 51.0925C68.1023 52.0947 67.9713 52.7154 67.9713 52.9546C67.9713 53.1938 68.0283 53.3589 68.1421 53.45C68.2674 53.5411 68.4098 53.5867 68.5692 53.5867C68.7401 53.5867 68.9508 53.4785 69.2013 53.2621C69.4519 53.0457 69.7024 52.8122 69.953 52.5617C70.2035 52.2997 70.4313 52.0606 70.6363 51.8442C70.8527 51.6278 71.0008 51.5196 71.0805 51.5196C71.2399 51.5196 71.3196 51.7132 71.3196 52.1004C71.3196 52.8976 70.9153 53.6778 70.1067 54.4408C69.3095 55.1925 68.4553 55.5626 67.5442 55.5512ZM68.2446 45.6258C67.9371 45.1703 67.7834 44.6806 67.7834 44.1567C67.7834 43.6328 67.8631 43.2 68.0226 42.8583C68.1934 42.5053 68.3528 42.249 68.5009 42.0896C68.6489 41.9188 68.8198 41.8333 69.0134 41.8333C69.3323 41.8333 69.6227 42.0725 69.8846 42.5508C70.1466 43.0178 70.2776 43.4107 70.2776 43.7296C70.2776 44.3218 70.0669 44.7888 69.6455 45.1304C69.2355 45.4607 68.7685 45.6258 68.2446 45.6258Z" fill="white"/>
</svg>
